<svg width="44" height="44" viewBox="0 0 44 44" fill="none" xmlns="http://www.w3.org/2000/svg">
<g clip-path="url(#clip0_1_28)">
<path d="M34.8333 5.5H9.16667C7.15 5.5 5.5 7.15 5.5 9.16667V22C5.5 24.0167 7.15 25.6667 9.16667 25.6667H34.8333C36.85 25.6667 38.5 24.0167 38.5 22V9.16667C38.5 7.15 36.85 5.5 34.8333 5.5ZM34.8333 16.5H27.5C27.5 19.47 24.97 22 22 22C19.03 22 16.5 19.47 16.5 16.5H9.16667V9.16667H34.8333V16.5ZM27.5 29.3333H38.5V34.8333C38.5 36.85 36.85 38.5 34.8333 38.5H9.16667C7.15 38.5 5.5 36.85 5.5 34.8333V29.3333H16.5C16.5 32.3767 18.9567 34.8333 22 34.8333C25.0433 34.8333 27.5 32.3767 27.5 29.3333Z" fill="#5053D9"/>
</g>
<defs>
<clipPath id="clip0_1_28">
<rect width="44" height="44" fill="white"/>
</clipPath>
</defs>
</svg>
